<svg width="140" height="140" viewBox="0 0 140 140" fill="none" xmlns="http://www.w3.org/2000/svg">
<path d="M70.1866 2.71242C78.999 2.71242 87.725 4.44814 95.8666 7.82049C104.008 11.1928 111.406 16.1358 117.637 22.3671C123.868 28.5983 128.811 35.996 132.184 44.1375C135.556 52.2791 137.292 61.0052 137.292 69.8176C137.292 78.6299 135.556 87.356 132.184 95.4976C128.811 103.639 123.868 111.037 117.637 117.268C111.406 123.499 104.008 128.442 95.8666 131.815C87.725 135.187 78.999 136.923 70.1866 136.923C61.3742 136.923 52.6481 135.187 44.5066 131.815C36.365 128.442 28.9674 123.499 22.7361 117.268C16.5048 111.037 11.5619 103.639 8.18951 95.4976C4.81717 87.356 3.08144 78.6299 3.08144 69.8176C3.08144 61.0052 4.81717 52.2791 8.18952 44.1375C11.5619 35.996 16.5048 28.5983 22.7361 22.3671C28.9674 16.1358 36.365 11.1928 44.5066 7.82049C52.6481 4.44814 61.3742 2.71242 70.1866 2.71242L70.1866 2.71242Z" stroke="#DBDFF1" stroke-width="4.89873"/>
</svg>
