<svg width="103" height="103" viewBox="0 0 103 103" fill="none" xmlns="http://www.w3.org/2000/svg">
<path d="M51.5 2.44937C57.9414 2.44937 64.3198 3.7181 70.2709 6.18313C76.222 8.64815 81.6293 12.2612 86.184 16.816C90.7388 21.3707 94.3519 26.778 96.8169 32.7291C99.2819 38.6802 100.551 45.0586 100.551 51.5C100.551 57.9414 99.2819 64.3198 96.8169 70.2709C94.3519 76.222 90.7388 81.6293 86.184 86.184C81.6293 90.7388 76.222 94.3519 70.2709 96.8169C64.3198 99.2819 57.9414 100.551 51.5 100.551C45.0586 100.551 38.6802 99.2819 32.7291 96.8169C26.778 94.3518 21.3707 90.7388 16.816 86.184C12.2612 81.6293 8.64814 76.222 6.18312 70.2709C3.71809 64.3198 2.44936 57.9414 2.44936 51.5C2.44936 45.0586 3.7181 38.6802 6.18312 32.7291C8.64815 26.778 12.2612 21.3707 16.816 16.816C21.3707 12.2612 26.778 8.64815 32.7291 6.18312C38.6802 3.7181 45.0586 2.44937 51.5 2.44937L51.5 2.44937Z" stroke="#DBDFF1" stroke-width="4.89873"/>
</svg>
