<svg width="26" height="26" viewBox="0 0 26 26" fill="none" xmlns="http://www.w3.org/2000/svg">
<path d="M2.16663 4.33333C2.16663 4.04602 2.28076 3.77047 2.48393 3.5673C2.68709 3.36414 2.96264 3.25 3.24996 3.25H22.75C23.0373 3.25 23.3128 3.36414 23.516 3.5673C23.7192 3.77047 23.8333 4.04602 23.8333 4.33333V10.2917C23.115 10.2917 22.4261 10.577 21.9182 11.0849C21.4103 11.5928 21.125 12.2817 21.125 13C21.125 13.7183 21.4103 14.4072 21.9182 14.9151C22.4261 15.423 23.115 15.7083 23.8333 15.7083V21.6667C23.8333 21.954 23.7192 22.2295 23.516 22.4327C23.3128 22.6359 23.0373 22.75 22.75 22.75H3.24996C2.96264 22.75 2.68709 22.6359 2.48393 22.4327C2.28076 22.2295 2.16663 21.954 2.16663 21.6667V4.33333ZM8.75871 20.5833C8.87037 20.2659 9.07781 19.991 9.35239 19.7965C9.62697 19.602 9.95515 19.4976 10.2916 19.4976C10.6281 19.4976 10.9563 19.602 11.2309 19.7965C11.5054 19.991 11.7129 20.2659 11.8245 20.5833H21.6666V17.368C20.8528 16.9647 20.1679 16.342 19.689 15.5703C19.2101 14.7985 18.9564 13.9083 18.9564 13C18.9564 12.0917 19.2101 11.2015 19.689 10.4297C20.1679 9.65797 20.8528 9.03532 21.6666 8.632V5.41667H11.8245C11.7129 5.73408 11.5054 6.009 11.2309 6.20348C10.9563 6.39797 10.6281 6.50242 10.2916 6.50242C9.95515 6.50242 9.62697 6.39797 9.35239 6.20348C9.07781 6.009 8.87037 5.73408 8.75871 5.41667H4.33329V20.5833H8.75871ZM10.2916 11.9167C9.86065 11.9167 9.44732 11.7455 9.14258 11.4407C8.83783 11.136 8.66663 10.7226 8.66663 10.2917C8.66663 9.86069 8.83783 9.44736 9.14258 9.14262C9.44732 8.83787 9.86065 8.66667 10.2916 8.66667C10.7226 8.66667 11.1359 8.83787 11.4407 9.14262C11.7454 9.44736 11.9166 9.86069 11.9166 10.2917C11.9166 10.7226 11.7454 11.136 11.4407 11.4407C11.1359 11.7455 10.7226 11.9167 10.2916 11.9167ZM10.2916 17.3333C9.86065 17.3333 9.44732 17.1621 9.14258 16.8574C8.83783 16.5526 8.66663 16.1393 8.66663 15.7083C8.66663 15.2774 8.83783 14.864 9.14258 14.5593C9.44732 14.2545 9.86065 14.0833 10.2916 14.0833C10.7226 14.0833 11.1359 14.2545 11.4407 14.5593C11.7454 14.864 11.9166 15.2774 11.9166 15.7083C11.9166 16.1393 11.7454 16.5526 11.4407 16.8574C11.1359 17.1621 10.7226 17.3333 10.2916 17.3333Z" fill="white"/>
</svg>
