<svg width="26" height="26" viewBox="0 0 26 26" fill="none" xmlns="http://www.w3.org/2000/svg">
<path d="M9.75002 1.08301V3.24967H16.25V1.08301H18.4167V3.24967H22.75C23.0373 3.24967 23.3129 3.36381 23.5161 3.56698C23.7192 3.77014 23.8334 4.04569 23.8334 4.33301V21.6663C23.8334 21.9537 23.7192 22.2292 23.5161 22.4324C23.3129 22.6355 23.0373 22.7497 22.75 22.7497H3.25002C2.9627 22.7497 2.68715 22.6355 2.48399 22.4324C2.28082 22.2292 2.16669 21.9537 2.16669 21.6663V4.33301C2.16669 4.04569 2.28082 3.77014 2.48399 3.56698C2.68715 3.36381 2.9627 3.24967 3.25002 3.24967H7.58335V1.08301H9.75002ZM21.6667 10.833H4.33335V20.583H21.6667V10.833ZM16.289 12.0637L17.8209 13.5955L12.4584 18.958L8.62769 15.1273L10.1617 13.5955L12.4594 15.8943L16.2901 12.0637H16.289ZM7.58335 5.41634H4.33335V8.66634H21.6667V5.41634H18.4167V6.49967H16.25V5.41634H9.75002V6.49967H7.58335V5.41634Z" fill="white"/>
</svg>
