<svg width="18" height="19" viewBox="0 0 18 19" fill="none" xmlns="http://www.w3.org/2000/svg">
<path d="M12 3H14C14.5305 3 15.0392 3.21071 15.4142 3.58579C15.7893 3.96086 16 4.46957 16 5V13.17C16.6675 13.4059 17.2301 13.8702 17.5884 14.4808C17.9467 15.0914 18.0775 15.809 17.9578 16.5068C17.8382 17.2046 17.4757 17.8375 16.9344 18.2939C16.3931 18.7502 15.708 19.0005 15 19.0005C14.2921 19.0005 13.6069 18.7502 13.0657 18.2939C12.5244 17.8375 12.1619 17.2046 12.0422 16.5068C11.9225 15.809 12.0534 15.0914 12.4117 14.4808C12.7699 13.8702 13.3325 13.4059 14 13.17V5H12V8L7.50003 4L12 0V3ZM2.00003 6.83C1.33254 6.59409 0.769936 6.1298 0.41167 5.51919C0.0534039 4.90859 -0.0774567 4.19098 0.0422185 3.49321C0.161894 2.79545 0.524399 2.16246 1.06566 1.70613C1.60692 1.2498 2.29208 0.999512 3.00003 0.999512C3.70798 0.999512 4.39314 1.2498 4.9344 1.70613C5.47566 2.16246 5.83817 2.79545 5.95784 3.49321C6.07752 4.19098 5.94666 4.90859 5.58839 5.51919C5.23012 6.1298 4.66752 6.59409 4.00003 6.83V13.17C4.66752 13.4059 5.23012 13.8702 5.58839 14.4808C5.94666 15.0914 6.07752 15.809 5.95784 16.5068C5.83817 17.2046 5.47566 17.8375 4.9344 18.2939C4.39314 18.7502 3.70798 19.0005 3.00003 19.0005C2.29208 19.0005 1.60692 18.7502 1.06566 18.2939C0.524399 17.8375 0.161894 17.2046 0.0422185 16.5068C-0.0774567 15.809 0.0534039 15.0914 0.41167 14.4808C0.769936 13.8702 1.33254 13.4059 2.00003 13.17V6.83ZM3.00003 5C3.26525 5 3.5196 4.89464 3.70714 4.70711C3.89467 4.51957 4.00003 4.26522 4.00003 4C4.00003 3.73478 3.89467 3.48043 3.70714 3.29289C3.5196 3.10536 3.26525 3 3.00003 3C2.73481 3 2.48046 3.10536 2.29292 3.29289C2.10539 3.48043 2.00003 3.73478 2.00003 4C2.00003 4.26522 2.10539 4.51957 2.29292 4.70711C2.48046 4.89464 2.73481 5 3.00003 5ZM3.00003 17C3.26525 17 3.5196 16.8946 3.70714 16.7071C3.89467 16.5196 4.00003 16.2652 4.00003 16C4.00003 15.7348 3.89467 15.4804 3.70714 15.2929C3.5196 15.1054 3.26525 15 3.00003 15C2.73481 15 2.48046 15.1054 2.29292 15.2929C2.10539 15.4804 2.00003 15.7348 2.00003 16C2.00003 16.2652 2.10539 16.5196 2.29292 16.7071C2.48046 16.8946 2.73481 17 3.00003 17ZM15 17C15.2652 17 15.5196 16.8946 15.7071 16.7071C15.8947 16.5196 16 16.2652 16 16C16 15.7348 15.8947 15.4804 15.7071 15.2929C15.5196 15.1054 15.2652 15 15 15C14.7348 15 14.4805 15.1054 14.2929 15.2929C14.1054 15.4804 14 15.7348 14 16C14 16.2652 14.1054 16.5196 14.2929 16.7071C14.4805 16.8946 14.7348 17 15 17Z" fill="#5A5A89"/>
</svg>
