<svg width="26" height="26" viewBox="0 0 26 26" fill="none" xmlns="http://www.w3.org/2000/svg">
<path d="M21.6667 23.8337H4.33333C4.04602 23.8337 3.77047 23.7195 3.5673 23.5164C3.36414 23.3132 3.25 23.0376 3.25 22.7503V3.25033C3.25 2.96301 3.36414 2.68746 3.5673 2.48429C3.77047 2.28113 4.04602 2.16699 4.33333 2.16699H21.6667C21.954 2.16699 22.2295 2.28113 22.4327 2.48429C22.6359 2.68746 22.75 2.96301 22.75 3.25033V22.7503C22.75 23.0376 22.6359 23.3132 22.4327 23.5164C22.2295 23.7195 21.954 23.8337 21.6667 23.8337ZM20.5833 21.667V4.33366H5.41667V21.667H20.5833ZM8.66667 9.75033H17.3333V11.917H8.66667V9.75033ZM8.66667 14.0837H17.3333V16.2503H8.66667V14.0837Z" fill="white"/>
</svg>
