<svg width="26" height="26" viewBox="0 0 26 26" fill="none" xmlns="http://www.w3.org/2000/svg">
<path d="M18.4166 3.24967H22.75C23.0373 3.24967 23.3128 3.36381 23.516 3.56698C23.7192 3.77014 23.8333 4.04569 23.8333 4.33301V21.6663C23.8333 21.9537 23.7192 22.2292 23.516 22.4324C23.3128 22.6355 23.0373 22.7497 22.75 22.7497H3.24996C2.96264 22.7497 2.68709 22.6355 2.48393 22.4324C2.28076 22.2292 2.16663 21.9537 2.16663 21.6663V4.33301C2.16663 4.04569 2.28076 3.77014 2.48393 3.56698C2.68709 3.36381 2.96264 3.24967 3.24996 3.24967H7.58329V1.08301H9.74996V3.24967H16.25V1.08301H18.4166V3.24967ZM4.33329 9.74967V20.583H21.6666V9.74967H4.33329ZM6.49996 11.9163H8.66663V14.083H6.49996V11.9163ZM6.49996 16.2497H8.66663V18.4163H6.49996V16.2497ZM10.8333 11.9163H19.5V14.083H10.8333V11.9163ZM10.8333 16.2497H16.25V18.4163H10.8333V16.2497Z" fill="white"/>
</svg>
