<svg width="18" height="8" viewBox="0 0 18 8" fill="none" xmlns="http://www.w3.org/2000/svg">
<path d="M12.874 4.9999C12.6516 5.85814 12.1504 6.61822 11.4493 7.16082C10.7481 7.70343 9.8866 7.99784 9 7.99784C8.1134 7.99784 7.2519 7.70343 6.55074 7.16082C5.84957 6.61822 5.34844 5.85814 5.126 4.9999H0V2.9999H5.126C5.34844 2.14166 5.84957 1.38158 6.55074 0.83897C7.2519 0.296364 8.1134 0.00195312 9 0.00195312C9.8866 0.00195312 10.7481 0.296364 11.4493 0.83897C12.1504 1.38158 12.6516 2.14166 12.874 2.9999H18V4.9999H12.874ZM9 5.9999C9.53043 5.9999 10.0391 5.78918 10.4142 5.41411C10.7893 5.03904 11 4.53033 11 3.9999C11 3.46946 10.7893 2.96076 10.4142 2.58568C10.0391 2.21061 9.53043 1.9999 9 1.9999C8.46957 1.9999 7.96086 2.21061 7.58579 2.58568C7.21071 2.96076 7 3.46946 7 3.9999C7 4.53033 7.21071 5.03904 7.58579 5.41411C7.96086 5.78918 8.46957 5.9999 9 5.9999Z" fill="#5A5A89"/>
</svg>
