<svg width="26" height="26" viewBox="0 0 26 26" fill="none" xmlns="http://www.w3.org/2000/svg">
<path d="M19.5 21.6667H6.50002V23.8333H4.33335V21.6667H3.25002C2.9627 21.6667 2.68715 21.5525 2.48399 21.3494C2.28082 21.1462 2.16669 20.8707 2.16669 20.5833V4.33333C2.16669 4.04602 2.28082 3.77047 2.48399 3.5673C2.68715 3.36414 2.9627 3.25 3.25002 3.25H22.75C23.0373 3.25 23.3129 3.36414 23.5161 3.5673C23.7192 3.77047 23.8334 4.04602 23.8334 4.33333V20.5833C23.8334 20.8707 23.7192 21.1462 23.5161 21.3494C23.3129 21.5525 23.0373 21.6667 22.75 21.6667H21.6667V23.8333H19.5V21.6667ZM4.33335 19.5H21.6667V5.41667H4.33335V19.5ZM14.0834 15.0302V18.4167H11.9167V15.0302C10.8978 14.764 10.0107 14.136 9.4209 13.2636C8.83113 12.3912 8.57904 11.3339 8.71172 10.2893C8.84439 9.24458 9.35275 8.28391 10.1419 7.58661C10.931 6.88932 11.947 6.50307 13 6.5C14.0555 6.49896 15.075 6.88316 15.8673 7.58049C16.6596 8.27782 17.1701 9.24034 17.3031 10.2874C17.4361 11.3344 17.1823 12.394 16.5895 13.2672C15.9967 14.1405 15.1056 14.7673 14.0834 15.0302ZM13 13C13.5747 13 14.1258 12.7717 14.5321 12.3654C14.9384 11.9591 15.1667 11.408 15.1667 10.8333C15.1667 10.2587 14.9384 9.7076 14.5321 9.30127C14.1258 8.89494 13.5747 8.66667 13 8.66667C12.4254 8.66667 11.8743 8.89494 11.468 9.30127C11.0616 9.7076 10.8334 10.2587 10.8334 10.8333C10.8334 11.408 11.0616 11.9591 11.468 12.3654C11.8743 12.7717 12.4254 13 13 13Z" fill="white"/>
</svg>
