<svg width="19" height="18" viewBox="0 0 19 18" fill="none" xmlns="http://www.w3.org/2000/svg">
<path d="M5.10495 12.2102C5.7586 12.4693 6.30051 12.9497 6.63613 13.5676C6.97175 14.1855 7.07975 14.9016 6.9413 15.5909C6.80285 16.2803 6.42673 16.8992 5.87858 17.3396C5.33043 17.7799 4.64505 18.0138 3.94204 18.0005C3.23903 17.9871 2.56303 17.7273 2.032 17.2665C1.50098 16.8056 1.14864 16.1729 1.03648 15.4787C0.924318 14.7846 1.05945 14.0731 1.4183 13.4685C1.77715 12.8638 2.33692 12.4043 2.99995 12.1702V5.83023C2.33245 5.59432 1.76985 5.13003 1.41159 4.51942C1.05332 3.90881 0.92246 3.1912 1.04213 2.49344C1.16181 1.79567 1.52431 1.16268 2.06557 0.706352C2.60683 0.250023 3.29199 -0.000262044 3.99995 -0.000262044C4.7079 -0.000262044 5.39306 0.250023 5.93432 0.706352C6.47558 1.16268 6.83808 1.79567 6.95776 2.49344C7.07743 3.1912 6.94657 3.90881 6.58831 4.51942C6.23004 5.13003 5.66744 5.59432 4.99995 5.83023V9.00023C5.83595 8.37223 6.87395 8.00023 7.99995 8.00023H11.9999C12.6581 8.00025 13.2979 7.78395 13.821 7.38461C14.3441 6.98528 14.7215 6.42506 14.8949 5.79023C14.2381 5.53013 13.6941 5.04666 13.3587 4.42492C13.0233 3.80318 12.9179 3.08304 13.0612 2.39128C13.2045 1.69952 13.5873 1.08049 14.1421 0.643167C14.6969 0.205846 15.3882 -0.0217274 16.0943 0.000511863C16.8004 0.0227512 17.476 0.293377 18.0022 0.764746C18.5284 1.23611 18.8714 1.87801 18.9709 2.57741C19.0704 3.27682 18.92 3.9889 18.5461 4.5883C18.1722 5.1877 17.5988 5.63598 16.9269 5.85423C16.7255 7.01491 16.1209 8.06723 15.2195 8.82572C14.3182 9.5842 13.178 10.0001 11.9999 10.0002H7.99995C7.34184 10.0002 6.70196 10.2165 6.17885 10.6158C5.65575 11.0152 5.27841 11.5754 5.10495 12.2102ZM3.99995 14.0002C3.73473 14.0002 3.48038 14.1056 3.29284 14.2931C3.1053 14.4807 2.99995 14.735 2.99995 15.0002C2.99995 15.2654 3.1053 15.5198 3.29284 15.7073C3.48038 15.8949 3.73473 16.0002 3.99995 16.0002C4.26516 16.0002 4.51952 15.8949 4.70705 15.7073C4.89459 15.5198 4.99995 15.2654 4.99995 15.0002C4.99995 14.735 4.89459 14.4807 4.70705 14.2931C4.51952 14.1056 4.26516 14.0002 3.99995 14.0002ZM3.99995 2.00023C3.73473 2.00023 3.48038 2.10558 3.29284 2.29312C3.1053 2.48066 2.99995 2.73501 2.99995 3.00023C2.99995 3.26544 3.1053 3.5198 3.29284 3.70733C3.48038 3.89487 3.73473 4.00023 3.99995 4.00023C4.26516 4.00023 4.51952 3.89487 4.70705 3.70733C4.89459 3.5198 4.99995 3.26544 4.99995 3.00023C4.99995 2.73501 4.89459 2.48066 4.70705 2.29312C4.51952 2.10558 4.26516 2.00023 3.99995 2.00023ZM15.9999 2.00023C15.7347 2.00023 15.4804 2.10558 15.2928 2.29312C15.1053 2.48066 14.9999 2.73501 14.9999 3.00023C14.9999 3.26544 15.1053 3.5198 15.2928 3.70733C15.4804 3.89487 15.7347 4.00023 15.9999 4.00023C16.2652 4.00023 16.5195 3.89487 16.7071 3.70733C16.8946 3.5198 16.9999 3.26544 16.9999 3.00023C16.9999 2.73501 16.8946 2.48066 16.7071 2.29312C16.5195 2.10558 16.2652 2.00023 15.9999 2.00023Z" fill="#5A5A89"/>
</svg>
