<svg width="24" height="24" viewBox="0 0 24 24" fill="none" xmlns="http://www.w3.org/2000/svg">
<path d="M7 10C7.66304 10 8.29893 9.73661 8.76777 9.26777C9.23661 8.79893 9.5 8.16304 9.5 7.5C9.5 6.83696 9.23661 6.20107 8.76777 5.73223C8.29893 5.26339 7.66304 5 7 5C6.33696 5 5.70107 5.26339 5.23223 5.73223C4.76339 6.20107 4.5 6.83696 4.5 7.5C4.5 8.16304 4.76339 8.79893 5.23223 9.26777C5.70107 9.73661 6.33696 10 7 10ZM7 12C6.40905 12 5.82389 11.8836 5.27792 11.6575C4.73196 11.4313 4.23588 11.0998 3.81802 10.682C3.40016 10.2641 3.06869 9.76804 2.84254 9.22208C2.6164 8.67611 2.5 8.09095 2.5 7.5C2.5 6.90905 2.6164 6.32389 2.84254 5.77792C3.06869 5.23196 3.40016 4.73588 3.81802 4.31802C4.23588 3.90016 4.73196 3.56869 5.27792 3.34254C5.82389 3.1164 6.40905 3 7 3C8.19347 3 9.33807 3.47411 10.182 4.31802C11.0259 5.16193 11.5 6.30653 11.5 7.5C11.5 8.69347 11.0259 9.83807 10.182 10.682C9.33807 11.5259 8.19347 12 7 12V12ZM17.5 14C18.0304 14 18.5391 13.7893 18.9142 13.4142C19.2893 13.0391 19.5 12.5304 19.5 12C19.5 11.4696 19.2893 10.9609 18.9142 10.5858C18.5391 10.2107 18.0304 10 17.5 10C16.9696 10 16.4609 10.2107 16.0858 10.5858C15.7107 10.9609 15.5 11.4696 15.5 12C15.5 12.5304 15.7107 13.0391 16.0858 13.4142C16.4609 13.7893 16.9696 14 17.5 14V14ZM17.5 16C16.4391 16 15.4217 15.5786 14.6716 14.8284C13.9214 14.0783 13.5 13.0609 13.5 12C13.5 10.9391 13.9214 9.92172 14.6716 9.17157C15.4217 8.42143 16.4391 8 17.5 8C18.5609 8 19.5783 8.42143 20.3284 9.17157C21.0786 9.92172 21.5 10.9391 21.5 12C21.5 13.0609 21.0786 14.0783 20.3284 14.8284C19.5783 15.5786 18.5609 16 17.5 16ZM20 22V21.5C20 20.837 19.7366 20.2011 19.2678 19.7322C18.7989 19.2634 18.163 19 17.5 19C16.837 19 16.2011 19.2634 15.7322 19.7322C15.2634 20.2011 15 20.837 15 21.5V22H13V21.5C13 20.9091 13.1164 20.3239 13.3425 19.7779C13.5687 19.232 13.9002 18.7359 14.318 18.318C14.7359 17.9002 15.232 17.5687 15.7779 17.3425C16.3239 17.1164 16.9091 17 17.5 17C18.0909 17 18.6761 17.1164 19.2221 17.3425C19.768 17.5687 20.2641 17.9002 20.682 18.318C21.0998 18.7359 21.4313 19.232 21.6575 19.7779C21.8836 20.3239 22 20.9091 22 21.5V22H20ZM10 22V18C10 17.2044 9.68393 16.4413 9.12132 15.8787C8.55871 15.3161 7.79565 15 7 15C6.20435 15 5.44129 15.3161 4.87868 15.8787C4.31607 16.4413 4 17.2044 4 18V22H2V18C2 16.6739 2.52678 15.4021 3.46447 14.4645C4.40215 13.5268 5.67392 13 7 13C8.32608 13 9.59785 13.5268 10.5355 14.4645C11.4732 15.4021 12 16.6739 12 18V22H10Z" fill="white"/>
</svg>
