<svg width="22" height="22" viewBox="0 0 22 22" fill="none" xmlns="http://www.w3.org/2000/svg">
<path d="M11 21.8337C5.01671 21.8337 0.166626 16.9836 0.166626 11.0003C0.166626 5.01708 5.01671 0.166992 11 0.166992C16.9832 0.166992 21.8333 5.01708 21.8333 11.0003C21.8333 16.9836 16.9832 21.8337 11 21.8337ZM11 19.667C13.2985 19.667 15.5029 18.7539 17.1282 17.1286C18.7535 15.5033 19.6666 13.2989 19.6666 11.0003C19.6666 8.70178 18.7535 6.49738 17.1282 4.87207C15.5029 3.24675 13.2985 2.33366 11 2.33366C8.70142 2.33366 6.49702 3.24675 4.8717 4.87207C3.24639 6.49738 2.33329 8.70178 2.33329 11.0003C2.33329 13.2989 3.24639 15.5033 4.8717 17.1286C6.49702 18.7539 8.70142 19.667 11 19.667ZM7.74996 6.66699H14.25L16.9583 10.4587L11 16.417L5.04163 10.4587L7.74996 6.66699ZM8.86579 8.83366L7.86913 10.2312L11 13.362L14.1308 10.2312L13.1341 8.83366H8.86579Z" fill="#8676FF"/>
</svg>
